# xmcd CD database file generated by LOLA_Freedb v0.9beta0
# 
# Track frame offsets:
#      150
#      9353
#      19584
#      25816
#      46635
#      55533
#      65636
#      77906
#      87704
#      98161
#      104890
#      118309
#      124794
# 
# Disc length: 1857 seconds
# 
# Revision: 0 
# Processed by: cddbd v1.5.1PL2 Copyright (c) Steve Scherf et al.
# Submitted via: LOLA_Freedb v0.9beta0
# 
DISCID=a7073f0d
DTITLE=Diverse - Grease CD 2
DYEAR=1900
DGENRE=
TTITLE0=Sha-Na-Na - Rock n'Roll is here to stay
TTITLE1=Sha-Na-Na - Those magic changes
TTITLE2=Sha-Na-Na - Hound dog
TTITLE3=Sha-Na-Na - Born to hand jive
TTITLE4=Sha-Na-Na - Tears on my pillow
TTITLE5=Louis St. Louis and Cindy Bullens - Mooning
TTITLE6=Cindy Bullens - Freddy my Love
TTITLE7=Louis St. Louis - Rock n'Roll party queen
TTITLE8=Stockard Channing - There are worde things I could do
TTITLE9=Olivia Newton-John - Look at me, I'm Sandra Dee
TTITLE10=Olivia Newton-John § John Travolta - We go together
TTITLE11=Bee Gees - Love is a many splendored thing
TTITLE12=Frankie Valli - Grease (Reprise)
EXTD=
EXTT0=
EXTT1=
EXTT2=
EXTT3=
EXTT4=
EXTT5=
EXTT6=
EXTT7=
EXTT8=
EXTT9=
EXTT10=
EXTT11=
EXTT12=
PLAYORDER=
